<?xml version="1.0" encoding="utf-8"?>
<!-- Generator: Adobe Illustrator 16.0.4, SVG Export Plug-In . SVG Version: 6.00 Build 0)  -->
<!DOCTYPE svg PUBLIC "-//W3C//DTD SVG 1.1//EN" "http://www.w3.org/Graphics/SVG/1.1/DTD/svg11.dtd">
<svg version="1.1" id="Layer_1" xmlns="http://www.w3.org/2000/svg" xmlns:xlink="http://www.w3.org/1999/xlink" x="0px" y="0px"
	 width="443.978px" height="356.207px" viewBox="0 0 443.978 356.207" enable-background="new 0 0 443.978 356.207"
	 xml:space="preserve">
<path fill="#56524D" d="M437.433,43.237c-15.793,7.008-32.756,11.737-50.576,13.871c18.183-10.903,32.14-28.155,38.721-48.715
	c-17.013,10.09-35.858,17.415-55.916,21.361C353.604,12.65,330.714,1.953,305.398,1.953c-48.62,0-88.049,39.423-88.049,88.044
	c0,6.897,0.776,13.624,2.281,20.065c-73.178-3.67-138.059-38.718-181.48-91.989c-7.581,13.003-11.918,28.124-11.918,44.255
	c0,30.554,15.542,57.5,39.165,73.293c-14.429-0.457-28.005-4.425-39.876-11.018c-0.009,0.369-0.009,0.739-0.009,1.106
	c0,42.658,30.351,78.248,70.632,86.342c-7.396,2.006-15.174,3.085-23.205,3.085c-5.667,0-11.185-0.56-16.561-1.584
	c11.201,34.98,43.719,60.437,82.253,61.156c-30.135,23.601-68.098,37.687-109.358,37.687c-7.103,0-14.111-0.419-20.999-1.239
	c38.962,24.979,85.245,39.566,134.97,39.566c161.953,0,250.508-134.164,250.508-250.519c0-3.814-0.092-7.607-0.262-11.388
	C410.695,76.407,425.621,60.9,437.433,43.237z"/>
</svg>
